<svg width="464" height="147" viewBox="0 0 464 147" fill="none" xmlns="http://www.w3.org/2000/svg">
<path d="M175.312 49.0862H176.028C205.568 -52.9635 281.3 47.4749 184.8 66.9897C195.005 84.8931 202.167 121.237 180.325 129.831C180.325 129.831 174.954 131.084 171.552 131.084C139.326 130.547 152.932 84.356 162.421 66.4526C154.006 63.2299 147.024 59.8283 141.474 56.4266C89.375 19.7245 166.002 -31.6584 175.312 49.0862Z" fill="#3A3A3A"/>
<path d="M113.453 45.4595C113.274 70.3453 130.461 123.877 94.8331 127.099C59.5633 124.235 83.912 58.7081 84.2701 35.4336H83.5539C70.8425 95.4102 42.555 90.9343 33.2452 33.8223H32.5291C32.5291 56.9178 54.9084 118.864 20.5337 122.444H18.0273C-13.6619 119.401 6.03193 50.2935 6.21097 28.2722C16.2369 -20.2462 55.6245 9.47357 58.31 45.9966H59.0262C66.9037 -13.98 110.23 -16.4864 113.453 45.4595Z" fill="#3A3A3A"/>
<path d="M456.679 88.856H464L443.143 146.053H435.821L442.723 126.987L429.034 88.856H436.584L446.193 117.531L456.679 88.856Z" fill="#3A3A3A"/>
<path d="M419.436 116.691L425.613 120.009C422.143 124.851 416.614 127.978 410.399 127.978C399.874 127.978 391.333 118.979 391.333 107.921C391.333 96.787 399.874 87.7881 410.399 87.7881C416.614 87.7881 422.143 90.9148 425.613 95.7956L419.436 99.113C417.148 96.2913 413.754 94.6898 410.399 94.6898C403.535 94.6898 398.235 100.829 398.235 107.921C398.235 115.052 403.611 121.076 410.399 121.076C413.945 121.076 417.262 119.284 419.436 116.691Z" fill="#3A3A3A"/>
<path d="M386.706 103.193V126.987H379.766V104.833C379.766 99.2655 375.267 94.8042 369.738 94.8042C364.209 94.8042 359.709 99.2655 359.709 104.833V126.987H352.808V88.8558H359.709V93.3552C362.417 89.9616 366.611 87.7881 371.301 87.7881C379.843 87.7881 386.706 94.6898 386.706 103.193Z" fill="#3A3A3A"/>
<path d="M327.584 127.978C317.06 127.978 308.519 118.979 308.519 107.921C308.519 96.787 317.06 87.7881 327.584 87.7881C339.138 87.7881 347.488 97.9691 346.421 110.4H315.916C316.831 116.463 321.445 121.038 327.584 121.076C331.893 121.076 335.592 118.712 337.803 114.823L344.819 116.463C341.769 123.25 335.21 127.978 327.584 127.978ZM315.687 105.023H339.481C338.756 98.9605 333.685 93.9272 327.584 93.9272C321.445 93.9272 316.526 98.808 315.687 105.023Z" fill="#3A3A3A"/>
<path d="M295.335 88.8557H302.237V128.131C302.237 138.35 292.781 146.052 282.485 146.052C274.478 146.052 266.852 140.333 264.297 133.05L270.627 130.114C272.076 135.261 277.338 139.112 282.485 139.112C289.044 139.112 295.335 134.384 295.335 128.131V120.924C292.819 125.118 288.586 127.978 283.095 127.978C272.304 127.978 263.534 118.979 263.534 107.921C263.534 96.8251 272.304 87.8262 283.095 87.8262C288.586 87.8262 292.819 90.686 295.335 94.8804V88.8557ZM283.172 121.305C290.226 121.305 294.916 115.166 294.916 107.921C294.916 100.6 290.188 94.4991 283.172 94.4991C276.194 94.4991 270.588 100.486 270.588 107.921C270.588 115.395 276.308 121.305 283.172 121.305Z" fill="#3A3A3A"/>
<path d="M234.329 73.6033H242.603L261.974 126.987H254.652L250.763 116.348H226.13L222.279 126.987H214.92L234.329 73.6033ZM228.647 109.408H248.246L238.447 82.5259L228.647 109.408Z" fill="#3A3A3A"/>
<path d="M278.037 28.6674C280.086 27.5964 282.027 26.33 283.832 24.8858C286.484 22.7073 291.437 17.5487 286.401 14.8358C282.579 12.7806 277.215 16.9938 274.296 19.0901C273.782 19.4806 273.269 19.8505 272.775 20.2616C274.831 12.5545 276.331 2.68957 269.384 3.94324C265.87 4.5598 264.781 8.42359 264.287 11.4242C263.743 14.8973 263.372 18.3956 263.178 21.9057C259.93 15.288 253.744 4.76532 249.12 10.0266C246.859 12.5957 248.586 17.076 250.065 19.5628C251.942 22.4928 254.329 25.0616 257.115 27.1465C254.756 26.5192 252.36 26.0388 249.942 25.7079C246.551 25.2352 241.228 23.9815 239.481 28.0919C237.241 33.4149 243.756 34.9357 250.435 35.2029C245.791 37.9774 241.927 41.9029 241.249 46.9998C241.105 48.0891 242.071 48.87 242.934 49.24C247.435 51.0691 252.326 47.6575 255.82 45.1296C256.8 44.3927 257.74 43.6037 258.636 42.7661C257.911 46.6272 257.465 50.5352 257.3 54.4602C257.303 54.9627 257.469 55.4507 257.772 55.8509C258.076 56.2511 258.502 56.542 258.985 56.6798C264.02 58.0157 266.158 53.5765 266.856 49.3427C267.267 46.897 267.576 44.4513 267.843 41.9851C268.316 43.2593 268.829 44.513 269.425 45.7667C271.481 49.8771 274.522 56.4948 279.886 56.2688C280.392 56.2645 280.882 56.0957 281.282 55.7879C281.683 55.4801 281.972 55.05 282.106 54.5629C283.093 49.7538 280.359 45.8694 277.893 41.8823C276.961 40.4026 275.995 38.9434 274.995 37.5047C277.378 38.5202 279.847 39.3182 282.373 39.8888C285.559 40.5875 291.519 42.355 293.184 38.2446C295.711 31.6474 286.319 29.4278 278.037 28.6674Z" fill="#FFBAD3"/>
<path d="M271.007 29.0783C270.481 28.041 269.673 27.1734 268.676 26.5757C267.678 25.9779 266.532 25.6745 265.37 25.7002C264.207 25.726 263.076 26.0801 262.106 26.7214C261.136 27.3628 260.367 28.2653 259.888 29.325C259.424 30.4211 259.315 31.6353 259.577 32.7965C259.839 33.9578 260.458 35.0078 261.347 35.7989C262.131 36.8172 263.267 37.5061 264.533 37.7307C265.637 37.9296 266.774 37.8173 267.818 37.4064C268.862 36.9955 269.77 36.3021 270.442 35.4041C271.114 34.506 271.523 33.4385 271.623 32.3213C271.722 31.2041 271.509 30.0812 271.007 29.0783Z" fill="#FFF59A"/>
</svg>
