<svg width="50" height="45" viewBox="0 0 50 45" fill="none" xmlns="http://www.w3.org/2000/svg">
<g clip-path="url(#clip0_72_5140)">
<path d="M49.0525 26.3852C48.779 25.8839 48.4068 25.4432 47.9582 25.0898C48.323 24.0727 48.323 22.9604 47.9582 21.9433C47.3173 20.1842 45.5958 18.8752 43.3527 18.4115C41.7716 18.0927 40.1552 17.9861 38.546 18.0945C38.1778 18.0945 37.8301 18.1184 37.5233 18.1184L36.9131 17.9309C36.9131 17.4775 37.1381 16.8877 37.6903 15.6161C38.6266 13.54 39.3662 11.3806 39.8994 9.16632C40.3357 7.34591 40.922 2.89375 36.8756 0.902897C36.4319 0.682813 35.9442 0.565743 35.449 0.560431C34.9538 0.555119 34.4637 0.661696 34.0154 0.872212C33.5583 1.08323 33.1546 1.39443 32.8341 1.78274C32.5137 2.17105 32.2848 2.6265 32.1643 3.11534L31.6257 5.30051L25.5952 12.4151C24.2156 14.1016 22.9307 15.8633 21.7464 17.6922C20.8873 17.3718 19.1897 17.1025 15.5045 17.14C9.65468 17.2047 8.91833 17.8695 8.5672 18.1865C8.50816 18.2388 8.45238 18.2945 8.40016 18.3536H2.63895C2.17391 18.3545 1.72824 18.5398 1.39973 18.869C1.07122 19.1981 0.886718 19.6442 0.886719 20.1092V40.2803C0.886718 40.7453 1.07122 41.1914 1.39973 41.5205C1.72824 41.8497 2.17391 42.035 2.63895 42.0359H8.17858C8.34911 42.3318 8.59803 42.5748 8.89788 42.7382C9.23878 42.9325 9.84217 43.2529 15.3273 43.2529H15.6102C21.3646 43.2529 21.8862 42.9325 22.268 42.7075C22.3293 42.67 22.3873 42.6291 22.4418 42.5882C25.4213 44.1768 29.0451 44.5586 32.212 44.5586C33.1904 44.5586 34.1245 44.5245 34.9836 44.4734C39.8209 44.1972 42.8243 43.0211 44.1231 40.8769C44.4603 40.3248 44.6732 39.7059 44.747 39.0633C45.7617 38.8467 46.685 38.3228 47.3914 37.5627C48.0978 36.8027 48.5528 35.8435 48.6946 34.8156C48.8135 34.0106 48.7219 33.1885 48.4287 32.4293C48.6395 32.2043 48.8258 31.9575 48.9843 31.693C49.4382 30.8844 49.6823 29.975 49.6942 29.0478C49.7061 28.1206 49.4855 27.2052 49.0525 26.3852Z" fill="white"/>
<path d="M14.1377 20.1057H2.62207V40.2801H14.1377V20.1057Z" fill="#FFF59A"/>
<path d="M26.9142 13.5469L33.2107 6.11866L33.8482 3.53805C33.9036 3.3072 34.01 3.09168 34.1595 2.90727C34.3091 2.72286 34.4979 2.57422 34.7123 2.47225C34.9267 2.37028 35.1612 2.31756 35.3986 2.31793C35.6361 2.31831 35.8704 2.37179 36.0845 2.47444C37.5162 3.1801 39.1151 4.86074 38.1776 8.76063C36.6094 15.2923 34.3731 16.7241 35.4027 19.1411C36.0129 20.5762 39.4935 19.3013 42.9638 20.1263C46.0319 20.7296 47.641 23.2796 45.4728 25.9863C48.8137 26.0477 48.6944 31.9555 45.5308 31.8941C47.8353 32.4328 47.6853 37.7133 42.7866 37.4883C42.7866 37.4883 45.0672 42.1416 34.864 42.7245C29.7505 43.0143 22.953 42.7893 19.844 37.9519C18.4463 35.7872 17.9758 33.1623 18.1395 30.6192C18.3988 27.5571 19.3991 24.6041 21.0542 22.0148C21.0542 22.0148 24.2688 16.6695 26.9142 13.5469Z" fill="#F6D9CB"/>
<path d="M37.915 26.1159V25.8602C40.7138 25.734 43.6047 25.6284 45.5001 25.8602L45.4694 26.1159C43.5774 25.884 40.6934 25.9897 37.915 26.1159Z" fill="#DB9C89"/>
<path d="M42.2854 32.1123C40.782 32.1123 39.2377 32.0543 37.9014 31.993V31.7373C40.2229 31.843 43.1819 31.9418 45.4455 31.7373L45.4694 31.993C44.508 32.0816 43.4205 32.1123 42.2854 32.1123Z" fill="#DB9C89"/>
<path d="M40.4201 37.7371C39.5702 37.7371 38.7293 37.7019 37.8975 37.6314L37.9179 37.3757C39.5932 37.5189 41.2777 37.5189 42.953 37.3757L42.9769 37.6314C42.1246 37.703 41.269 37.7371 40.4201 37.7371Z" fill="#DB9C89"/>
<path d="M33.9267 6.4254C33.6601 6.41132 33.3986 6.34653 33.1562 6.23449L33.2619 6.00268C33.4392 6.0845 33.9812 6.2754 34.1755 6.10154C34.3699 5.92768 34.5335 4.73794 34.6255 3.6232C34.6007 3.48821 34.542 3.36174 34.4549 3.25561C34.3679 3.14949 34.2553 3.06718 34.1278 3.01639L34.213 2.77435C34.3904 2.84287 34.5466 2.95667 34.6663 3.10441C34.7859 3.25216 34.8647 3.42868 34.8948 3.61638C34.8642 4.03568 34.6835 6.00268 34.3596 6.29245C34.2372 6.38973 34.0826 6.43722 33.9267 6.4254Z" fill="#DB9C89"/>
<path d="M30.0658 9.80284L29.9346 10.0222L31.3797 10.8868L31.511 10.6674L30.0658 9.80284Z" fill="#DB9C89"/>
<path d="M30.5958 9.17163L30.4609 9.38885L31.2748 9.89407L31.4097 9.67684L30.5958 9.17163Z" fill="#DB9C89"/>
<path d="M29.5805 10.3639L29.4434 10.5796L30.3984 11.1869L30.5356 10.9711L29.5805 10.3639Z" fill="#DB9C89"/>
<path d="M37.7993 38.0678L37.6016 37.9076C37.7082 37.8049 37.7723 37.6658 37.7811 37.518C37.79 37.3703 37.7429 37.2246 37.6493 37.1099L37.8572 36.9599C37.9828 37.1205 38.0461 37.3211 38.0354 37.5247C38.0248 37.7283 37.9409 37.9211 37.7993 38.0678Z" fill="#DB9C89"/>
<path d="M37.7993 32.4226L37.6016 32.2624C37.7077 32.1587 37.7714 32.0192 37.7803 31.871C37.7891 31.7229 37.7424 31.5768 37.6493 31.4612L37.8572 31.3112C37.983 31.4724 38.0464 31.6736 38.0358 31.8777C38.0251 32.0819 37.9412 32.2754 37.7993 32.4226Z" fill="#DB9C89"/>
<path d="M37.7993 26.5453L37.6016 26.385C37.7077 26.2814 37.7714 26.1418 37.7803 25.9937C37.7891 25.8456 37.7424 25.6995 37.6493 25.5839L37.8572 25.4339C37.983 25.5951 38.0464 25.7962 38.0358 26.0004C38.0251 26.2046 37.9412 26.3981 37.7993 26.5453Z" fill="#DB9C89"/>
<path d="M37.2336 19.9967C34.2064 19.8706 32.553 18.6024 32.4814 18.5479L32.6383 18.3468C32.6553 18.3468 34.3053 19.6183 37.2438 19.7411L37.2336 19.9967Z" fill="#DB9C89"/>
<path d="M21.3575 41.2007C20.7166 41.5791 10.4964 41.6234 9.72255 41.2007C8.9487 40.778 8.97597 20.1603 9.72255 19.4887C10.4691 18.8172 20.5223 18.5717 21.3575 19.4887C22.1927 20.4058 21.9984 40.8189 21.3575 41.2007Z" fill="#FFF59A"/>
<path d="M9.66778 20.1057H9.41211V40.2801H9.66778V20.1057Z" fill="#FFF59A"/>
<path d="M15.3406 40.1609C16.2067 40.1609 16.9087 39.4588 16.9087 38.5927C16.9087 37.7267 16.2067 37.0246 15.3406 37.0246C14.4745 37.0246 13.7725 37.7267 13.7725 38.5927C13.7725 39.4588 14.4745 40.1609 15.3406 40.1609Z" fill="#F26698"/>
</g>
<defs>
<clipPath id="clip0_72_5140">
<rect width="48.8203" height="44" fill="white" transform="translate(0.869141 0.558502)"/>
</clipPath>
</defs>
</svg>
