<svg width="78" height="47" viewBox="0 0 78 47" fill="none" xmlns="http://www.w3.org/2000/svg">
<path d="M0.5 6.16432C0.5 3.03596 3.03603 0.499939 6.16438 0.499939H71.8356C74.964 0.499939 77.5 3.03597 77.5 6.16432V25.1214C77.5 28.133 75.0586 30.5743 72.0471 30.5743C70.3386 30.5743 69.0053 32.0526 69.1812 33.7521L70.1198 42.8224C70.1954 43.5525 69.2698 43.928 68.8153 43.3515L62.5948 35.4609C60.1621 32.3751 56.4495 30.5743 52.5201 30.5743H39H6.16438C3.03603 30.5743 0.5 28.0383 0.5 24.9099V6.16432Z" fill="white" stroke="#BBBBBB"/>
<path d="M15.1222 20.9999L12.3331 10.8181H13.2777L15.5845 19.5731H15.6641L17.9709 10.8181H19.0447L21.3516 19.5731H21.4311L23.7379 10.8181H24.6875L21.8984 20.9999H20.9041L18.5426 12.3643H18.478L16.1165 20.9999H15.1222ZM27.6058 21.1739C27.1451 21.1739 26.7242 21.0845 26.343 20.9055C25.9619 20.7232 25.6586 20.4613 25.4332 20.12C25.2079 19.7753 25.0952 19.3577 25.0952 18.8671C25.0952 18.4893 25.1664 18.1711 25.3089 17.9126C25.4515 17.6541 25.6536 17.4419 25.9155 17.2762C26.1773 17.1105 26.4872 16.9796 26.8452 16.8835C27.2031 16.7873 27.5975 16.7128 28.0284 16.6597C28.456 16.6067 28.8172 16.5603 29.1122 16.5205C29.4105 16.4808 29.6375 16.4178 29.7933 16.3316C29.9491 16.2454 30.027 16.1062 30.027 15.914V15.735C30.027 15.2147 29.8712 14.8053 29.5597 14.507C29.2514 14.2054 28.8073 14.0546 28.2273 14.0546C27.6771 14.0546 27.228 14.1756 26.88 14.4176C26.5353 14.6595 26.2933 14.9445 26.1541 15.2727L25.3139 14.9694C25.4863 14.5518 25.7249 14.2187 26.0298 13.9701C26.3348 13.7182 26.6761 13.5376 27.054 13.4282C27.4318 13.3155 27.8146 13.2592 28.2024 13.2592C28.4941 13.2592 28.7973 13.2973 29.1122 13.3735C29.4304 13.4497 29.7254 13.5823 29.9972 13.7712C30.2689 13.9569 30.4893 14.217 30.6584 14.5518C30.8274 14.8832 30.9119 15.3042 30.9119 15.8146V20.9999H30.027V19.7918H29.9723C29.8662 20.0172 29.7088 20.236 29.5 20.4481C29.2912 20.6602 29.0294 20.8342 28.7145 20.9701C28.3996 21.106 28.0301 21.1739 27.6058 21.1739ZM27.7251 20.3636C28.1958 20.3636 28.6035 20.2592 28.9482 20.0504C29.2929 19.8416 29.558 19.5648 29.7436 19.2201C29.9325 18.8721 30.027 18.4893 30.027 18.0717V16.968C29.9607 17.031 29.8497 17.0873 29.6939 17.137C29.5414 17.1867 29.3641 17.2315 29.1619 17.2712C28.9631 17.3077 28.7642 17.3392 28.5653 17.3657C28.3665 17.3922 28.1875 17.4154 28.0284 17.4353C27.5975 17.4883 27.2296 17.5712 26.9247 17.6839C26.6198 17.7966 26.3861 17.9524 26.2237 18.1512C26.0613 18.3468 25.9801 18.5987 25.9801 18.9069C25.9801 19.3709 26.1458 19.7305 26.4773 19.9857C26.8087 20.2376 27.2247 20.3636 27.7251 20.3636ZM38.3967 15.039L37.5863 15.2677C37.5067 15.039 37.3941 14.8319 37.2482 14.6462C37.1024 14.4606 36.9118 14.3131 36.6765 14.2038C36.4445 14.0944 36.1561 14.0397 35.8114 14.0397C35.2944 14.0397 34.8701 14.1623 34.5387 14.4076C34.2073 14.6529 34.0415 14.9694 34.0415 15.3572C34.0415 15.6853 34.1542 15.9521 34.3796 16.1576C34.6083 16.3598 34.9596 16.5205 35.4336 16.6399L36.587 16.9232C37.2267 17.079 37.7056 17.3259 38.0238 17.664C38.3453 18.0021 38.506 18.4263 38.506 18.9367C38.506 19.3676 38.3867 19.7504 38.1481 20.0852C37.9094 20.4199 37.5763 20.6834 37.1488 20.8756C36.7246 21.0646 36.2324 21.159 35.6722 21.159C34.9265 21.159 34.3117 20.9917 33.8278 20.6569C33.3439 20.3188 33.034 19.8316 32.8981 19.1953L33.7482 18.9864C33.8576 19.4405 34.0714 19.7836 34.3896 20.0156C34.7111 20.2476 35.1336 20.3636 35.6573 20.3636C36.244 20.3636 36.713 20.2327 37.0643 19.9708C37.4156 19.7057 37.5913 19.3742 37.5913 18.9765C37.5913 18.6683 37.4885 18.4097 37.283 18.2009C37.0775 17.9888 36.766 17.833 36.3484 17.7336L35.1005 17.4353C34.4376 17.2762 33.9471 17.0243 33.6289 16.6796C33.3107 16.3349 33.1516 15.9074 33.1516 15.397C33.1516 14.976 33.266 14.6065 33.4947 14.2883C33.7234 13.9668 34.0382 13.7149 34.4393 13.5326C34.8403 13.3503 35.2977 13.2592 35.8114 13.2592C36.5108 13.2592 37.0692 13.4183 37.4869 13.7364C37.9078 14.0513 38.2111 14.4855 38.3967 15.039ZM45.5744 15.039L44.764 15.2677C44.6845 15.039 44.5718 14.8319 44.426 14.6462C44.2801 14.4606 44.0895 14.3131 43.8542 14.2038C43.6222 14.0944 43.3339 14.0397 42.9892 14.0397C42.4721 14.0397 42.0479 14.1623 41.7164 14.4076C41.385 14.6529 41.2193 14.9694 41.2193 15.3572C41.2193 15.6853 41.332 15.9521 41.5574 16.1576C41.786 16.3598 42.1374 16.5205 42.6113 16.6399L43.7647 16.9232C44.4044 17.079 44.8833 17.3259 45.2015 17.664C45.523 18.0021 45.6838 18.4263 45.6838 18.9367C45.6838 19.3676 45.5645 19.7504 45.3258 20.0852C45.0872 20.4199 44.7541 20.6834 44.3265 20.8756C43.9023 21.0646 43.4101 21.159 42.85 21.159C42.1042 21.159 41.4894 20.9917 41.0055 20.6569C40.5216 20.3188 40.2117 19.8316 40.0758 19.1953L40.926 18.9864C41.0353 19.4405 41.2491 19.7836 41.5673 20.0156C41.8888 20.2476 42.3114 20.3636 42.835 20.3636C43.4217 20.3636 43.8907 20.2327 44.242 19.9708C44.5933 19.7057 44.769 19.3742 44.769 18.9765C44.769 18.6683 44.6663 18.4097 44.4608 18.2009C44.2553 17.9888 43.9437 17.833 43.5261 17.7336L42.2782 17.4353C41.6154 17.2762 41.1248 17.0243 40.8066 16.6796C40.4885 16.3349 40.3294 15.9074 40.3294 15.397C40.3294 14.976 40.4437 14.6065 40.6724 14.2883C40.9011 13.9668 41.216 13.7149 41.617 13.5326C42.0181 13.3503 42.4754 13.2592 42.9892 13.2592C43.6885 13.2592 44.247 13.4183 44.6646 13.7364C45.0855 14.0513 45.3888 14.4855 45.5744 15.039ZM52.4737 18.0816V13.3636H53.3587V20.9999H52.4737V19.7322H52.4041C52.2251 20.1233 51.9418 20.4497 51.554 20.7116C51.1662 20.9701 50.6922 21.0994 50.1321 21.0994C49.6449 21.0994 49.2124 20.9933 48.8345 20.7812C48.4567 20.5658 48.16 20.2509 47.9446 19.8366C47.7292 19.4223 47.6214 18.9135 47.6214 18.3103V13.3636H48.5064V18.2556C48.5064 18.8522 48.6821 19.3328 49.0334 19.6974C49.3847 20.0587 49.8355 20.2393 50.3857 20.2393C50.7304 20.2393 51.0618 20.1564 51.38 19.9907C51.6982 19.825 51.96 19.583 52.1655 19.2649C52.371 18.9434 52.4737 18.5489 52.4737 18.0816ZM55.7015 23.8636V13.3636H56.5616V14.8203H56.666C56.7721 14.5916 56.9179 14.3579 57.1035 14.1193C57.2891 13.8773 57.5344 13.6735 57.8393 13.5078C58.1475 13.342 58.5353 13.2592 59.0027 13.2592C59.6324 13.2592 60.1826 13.4249 60.6532 13.7563C61.1272 14.0845 61.4951 14.5452 61.7569 15.1384C62.0221 15.7284 62.1547 16.4161 62.1547 17.2016C62.1547 17.9905 62.0221 18.6815 61.7569 19.2748C61.4951 19.8681 61.1272 20.3304 60.6532 20.6619C60.1826 20.9933 59.6357 21.159 59.0126 21.159C58.5519 21.159 58.1658 21.0762 57.8542 20.9105C57.546 20.7447 57.2958 20.5409 57.1035 20.2989C56.9146 20.0537 56.7688 19.815 56.666 19.583H56.5865V23.8636H55.7015ZM56.5765 17.1867C56.5765 17.8032 56.6677 18.3501 56.85 18.8274C57.0356 19.3013 57.3007 19.6742 57.6454 19.946C57.9934 20.2144 58.4144 20.3487 58.9082 20.3487C59.4153 20.3487 59.8429 20.2095 60.1909 19.931C60.5422 19.6493 60.809 19.2698 60.9913 18.7926C61.1769 18.3153 61.2697 17.78 61.2697 17.1867C61.2697 16.6001 61.1786 16.0714 60.9963 15.6008C60.8173 15.1301 60.5521 14.7573 60.2008 14.4822C59.8495 14.2038 59.4186 14.0646 58.9082 14.0646C58.411 14.0646 57.9885 14.1988 57.6404 14.4673C57.2924 14.7324 57.0273 15.1003 56.845 15.571C56.666 16.0383 56.5765 16.5769 56.5765 17.1867Z" fill="black"/>
</svg>
