<svg width="102" height="47" viewBox="0 0 102 47" fill="none" xmlns="http://www.w3.org/2000/svg">
<path d="M0.928711 6.36992C0.928711 3.12809 3.55674 0.500061 6.79857 0.500061H95.0588C98.3007 0.500061 100.929 3.12809 100.929 6.36992V25.9644C100.929 29.2062 98.3007 31.8342 95.0588 31.8342H27.9633C27.2436 31.8342 26.5471 32.0889 25.9972 32.5531L11.9115 44.4436C11.3666 44.9037 10.5422 44.4443 10.6467 43.7388L12.1083 33.868C12.267 32.7965 11.4367 31.8342 10.3535 31.8342H6.79858C3.55674 31.8342 0.928711 29.2062 0.928711 25.9643V6.36992Z" fill="white" stroke="#BBBBBB"/>
<path d="M9.82644 10.8514H10.9003L13.9181 15.6838H14.0075L17.0253 10.8514H18.0992L14.4252 16.6234V21.0332H13.5004V16.6234L9.82644 10.8514ZM21.5494 21.1923C20.8899 21.1923 20.3066 21.0249 19.7994 20.6902C19.2957 20.3554 18.9012 19.8931 18.6162 19.3031C18.3312 18.7098 18.1887 18.0254 18.1887 17.2498C18.1887 16.4676 18.3312 15.7799 18.6162 15.1866C18.9012 14.59 19.2957 14.126 19.7994 13.7946C20.3066 13.4598 20.8899 13.2924 21.5494 13.2924C22.209 13.2924 22.7907 13.4598 23.2945 13.7946C23.7983 14.1293 24.1927 14.5933 24.4777 15.1866C24.7661 15.7799 24.9102 16.4676 24.9102 17.2498C24.9102 18.0254 24.7677 18.7098 24.4827 19.3031C24.1977 19.8931 23.8016 20.3554 23.2945 20.6902C22.7907 21.0249 22.209 21.1923 21.5494 21.1923ZM21.5494 20.3819C22.0798 20.3819 22.5289 20.2394 22.8968 19.9544C23.2646 19.6693 23.5431 19.2898 23.732 18.8159C23.9242 18.3419 24.0203 17.8199 24.0203 17.2498C24.0203 16.6797 23.9242 16.1561 23.732 15.6788C23.5431 15.2015 23.2646 14.8187 22.8968 14.5304C22.5289 14.242 22.0798 14.0978 21.5494 14.0978C21.0225 14.0978 20.5734 14.242 20.2021 14.5304C19.8343 14.8187 19.5542 15.2015 19.3619 15.6788C19.173 16.1561 19.0786 16.6797 19.0786 17.2498C19.0786 17.8199 19.173 18.3419 19.3619 18.8159C19.5542 19.2898 19.8343 19.6693 20.2021 19.9544C20.57 20.2394 21.0191 20.3819 21.5494 20.3819ZM33.7982 13.3968V14.1674H30.154V13.3968H33.7982ZM31.2925 11.5673H32.1824V19.0396C32.1824 19.3578 32.2371 19.608 32.3465 19.7903C32.4559 19.9693 32.5984 20.0969 32.7741 20.1731C32.9497 20.246 33.137 20.2825 33.3358 20.2825C33.4519 20.2825 33.5513 20.2759 33.6341 20.2626C33.717 20.246 33.7899 20.2295 33.8529 20.2129L34.0418 21.0133C33.9556 21.0465 33.8496 21.0763 33.7236 21.1028C33.5977 21.1326 33.4419 21.1475 33.2563 21.1475C32.9315 21.1475 32.6183 21.0763 32.3167 20.9338C32.0184 20.7913 31.7731 20.5791 31.5809 20.2974C31.3886 20.0157 31.2925 19.666 31.2925 19.2484V11.5673ZM36.857 16.2605V21.0332H35.972V10.8514H36.857V14.595H36.9365C37.1155 14.2006 37.3923 13.8857 37.7668 13.6504C38.1446 13.4151 38.6219 13.2974 39.1986 13.2974C39.7156 13.2974 40.1697 13.4035 40.5608 13.6156C40.9519 13.8277 41.2568 14.1409 41.4756 14.5552C41.6943 14.9695 41.8037 15.4799 41.8037 16.0865V21.0332H40.9138V16.1412C40.9138 15.5114 40.7381 15.0159 40.3868 14.6547C40.0388 14.2901 39.5682 14.1078 38.9749 14.1078C38.5672 14.1078 38.2043 14.194 37.8861 14.3663C37.5679 14.5386 37.316 14.7872 37.1304 15.112C36.9481 15.4335 36.857 15.8163 36.857 16.2605ZM47.2215 21.1923C46.5089 21.1923 45.8924 21.0266 45.3721 20.6951C44.8517 20.3604 44.449 19.898 44.164 19.3081C43.8823 18.7148 43.7414 18.032 43.7414 17.2598C43.7414 16.4908 43.8823 15.8081 44.164 15.2115C44.449 14.6116 44.8418 14.1426 45.3422 13.8045C45.846 13.4631 46.4277 13.2924 47.0873 13.2924C47.5016 13.2924 47.901 13.3687 48.2854 13.5211C48.6699 13.6703 49.0146 13.9006 49.3195 14.2122C49.6278 14.5204 49.8714 14.9099 50.0503 15.3805C50.2293 15.8478 50.3188 16.4013 50.3188 17.041V17.4785H44.3529V16.698H49.414C49.414 16.2074 49.3145 15.7666 49.1157 15.3755C48.9201 14.9811 48.6467 14.6696 48.2954 14.4409C47.9474 14.2122 47.5447 14.0978 47.0873 14.0978C46.6034 14.0978 46.1775 14.2271 45.8096 14.4856C45.4417 14.7441 45.1533 15.0855 44.9445 15.5098C44.739 15.934 44.6346 16.398 44.6313 16.9018V17.3691C44.6313 17.9757 44.7357 18.506 44.9445 18.96C45.1566 19.4108 45.4566 19.7605 45.8444 20.0091C46.2322 20.2576 46.6912 20.3819 47.2215 20.3819C47.5828 20.3819 47.8993 20.3256 48.1711 20.2129C48.4462 20.1002 48.6765 19.9494 48.8621 19.7605C49.051 19.5682 49.1936 19.3578 49.2897 19.1291L50.1299 19.4025C50.0139 19.724 49.8233 20.0207 49.5581 20.2924C49.2963 20.5642 48.9682 20.783 48.5738 20.9487C48.1827 21.1111 47.7319 21.1923 47.2215 21.1923ZM52.2689 21.0332V13.3968H53.129V14.5701H53.1936C53.3461 14.1857 53.6112 13.8758 53.9891 13.6404C54.3702 13.4018 54.8011 13.2825 55.2817 13.2825C55.3546 13.2825 55.4358 13.2841 55.5253 13.2875C55.6148 13.2908 55.6894 13.2941 55.749 13.2974V14.1973C55.7093 14.1906 55.6396 14.1807 55.5402 14.1674C55.4408 14.1542 55.3331 14.1475 55.2171 14.1475C54.8193 14.1475 54.4647 14.2321 54.1531 14.4011C53.8449 14.5668 53.6013 14.7972 53.4223 15.0922C53.2433 15.3871 53.1539 15.7235 53.1539 16.1014V21.0332H52.2689ZM60.1141 21.1923C59.4015 21.1923 58.785 21.0266 58.2646 20.6951C57.7443 20.3604 57.3416 19.898 57.0566 19.3081C56.7748 18.7148 56.634 18.032 56.634 17.2598C56.634 16.4908 56.7748 15.8081 57.0566 15.2115C57.3416 14.6116 57.7343 14.1426 58.2348 13.8045C58.7386 13.4631 59.3203 13.2924 59.9798 13.2924C60.3941 13.2924 60.7935 13.3687 61.178 13.5211C61.5625 13.6703 61.9072 13.9006 62.2121 14.2122C62.5203 14.5204 62.7639 14.9099 62.9429 15.3805C63.1219 15.8478 63.2114 16.4013 63.2114 17.041V17.4785H57.2455V16.698H62.3066C62.3066 16.2074 62.2071 15.7666 62.0083 15.3755C61.8127 14.9811 61.5393 14.6696 61.1879 14.4409C60.8399 14.2122 60.4372 14.0978 59.9798 14.0978C59.4959 14.0978 59.07 14.2271 58.7021 14.4856C58.3343 14.7441 58.0459 15.0855 57.8371 15.5098C57.6316 15.934 57.5272 16.398 57.5239 16.9018V17.3691C57.5239 17.9757 57.6283 18.506 57.8371 18.96C58.0492 19.4108 58.3492 19.7605 58.7369 20.0091C59.1247 20.2576 59.5838 20.3819 60.1141 20.3819C60.4753 20.3819 60.7919 20.3256 61.0637 20.2129C61.3387 20.1002 61.5691 19.9494 61.7547 19.7605C61.9436 19.5682 62.0861 19.3578 62.1823 19.1291L63.0225 19.4025C62.9065 19.724 62.7159 20.0207 62.4507 20.2924C62.1889 20.5642 61.8608 20.783 61.4664 20.9487C61.0753 21.1111 60.6245 21.1923 60.1141 21.1923Z" fill="black"/>
<path d="M86.2211 5.00151L86.4684 5.03808L86.7157 5.07464C86.7157 5.07465 86.7157 5.07465 86.7157 5.07465C86.5229 6.37963 87.3824 7.54351 88.5874 8.14197C89.7923 8.74034 91.2389 8.7219 92.1621 7.77991C92.1622 7.77979 92.1623 7.77967 92.1625 7.77955L92.3411 7.9545L92.5196 8.12944C91.5964 9.07191 91.6077 10.5187 92.2309 11.7111C92.854 12.9036 94.0354 13.7389 95.3362 13.5192L95.3778 13.7657L95.4195 14.0122C95.4195 14.0122 95.4195 14.0122 95.4195 14.0122C94.1187 14.232 93.2774 15.4092 93.0807 16.7402C92.8839 18.071 93.3485 19.441 94.5297 20.0279C94.5298 20.028 94.53 20.0281 94.5301 20.0281L94.4189 20.252L94.3077 20.476C93.1261 19.8891 91.7536 20.3469 90.8121 21.308C89.8706 22.2692 89.4412 23.6509 90.0522 24.8201L89.8306 24.9359L89.609 25.0517C88.998 23.8824 87.6185 23.4461 86.2919 23.6702C84.9652 23.8944 83.8056 24.7598 83.6127 26.0649L83.3654 26.0283L83.1181 25.9918C83.311 24.6867 82.4515 23.5228 81.2464 22.9243C80.0414 22.3259 78.5946 22.3444 77.6714 23.2869L77.4928 23.1119L77.3142 22.937C78.2374 21.9945 78.2262 20.5476 77.6031 19.3552C76.98 18.1628 75.7986 17.3274 74.4977 17.5472L74.4561 17.3007L74.4144 17.0542C75.7152 16.8344 76.5565 15.6572 76.7533 14.3262C76.9501 12.9952 76.4854 11.625 75.3037 11.0383L75.4147 10.8148L75.4149 10.8144L75.5261 10.5905M86.2211 5.00151L76.1099 11.3058C75.8388 11.2573 75.5685 11.1698 75.3037 11.0383L75.5261 10.5905C75.5261 10.5905 75.5261 10.5905 75.5261 10.5905M86.2211 5.00151C86.0281 6.30661 84.8686 7.17202 83.5419 7.39618C82.2153 7.62035 80.8358 7.18398 80.2249 6.01477C80.3618 6.27678 80.4548 6.5451 80.5089 6.81514M86.2211 5.00151L80.5089 6.81514M75.5261 10.5905C75.7909 10.722 76.0239 10.8844 76.2265 11.0711C78.3867 11.3968 80.6467 9.08951 80.2766 6.93654C80.0858 6.7379 79.9186 6.50835 79.7817 6.24633C80.3927 7.41555 79.9633 8.79726 79.0218 9.75839C78.0803 10.7195 76.7078 11.1773 75.5261 10.5905ZM80.5089 6.81514C82.065 8.34834 85.2498 7.81018 86.2158 5.85071L80.5089 6.81514Z" fill="#FFF59A" stroke="#BBBBBB" stroke-width="0.5"/>
<path d="M86.4301 13.2649C86.2767 12.621 85.9807 12.162 85.7247 12.2053C85.4374 12.2538 85.3098 12.9163 85.4395 13.6847C85.5694 14.4533 85.9075 15.037 86.1949 14.9883C86.4466 14.9457 86.5758 14.4316 86.5166 13.788L85.9739 13.6794L86.4301 13.2649Z" fill="#000400"/>
<path d="M83.7738 13.7136C83.6204 13.0697 83.3245 12.6106 83.0685 12.654C82.7811 12.7025 82.6535 13.365 82.7832 14.1334C82.9131 14.902 83.2513 15.4857 83.5386 15.437C83.7904 15.3944 83.9196 14.8805 83.8603 14.2366L83.3176 14.1281L83.7738 13.7136Z" fill="#000400"/>
<path d="M87.1863 15.9474C87.3858 17.1283 86.5902 18.2474 85.4093 18.4469C84.2284 18.6463 83.1093 17.8507 82.9098 16.6698L87.1863 15.9474Z" fill="#000400"/>
<path d="M79.1146 16.1445C78.9885 15.3974 79.4916 14.6897 80.2387 14.5633C80.9858 14.4372 81.6935 14.9403 81.8198 15.6874C81.946 16.4343 81.4429 17.1422 80.6958 17.2686C79.9487 17.3947 79.2408 16.8916 79.1146 16.1445Z" fill="#FFBAD3"/>
<path d="M87.892 14.6613C87.7658 13.9142 88.2689 13.2065 89.016 13.0801C89.7631 12.954 90.4708 13.4571 90.5972 14.2042C90.7233 14.9513 90.2202 15.659 89.4731 15.7853C88.7261 15.9117 88.0183 15.4084 87.892 14.6613Z" fill="#FFBAD3"/>
</svg>
