<svg width="52" height="42" viewBox="0 0 52 42" fill="none" xmlns="http://www.w3.org/2000/svg">
<path d="M0.530273 17.4789C0.530273 14.9936 2.54499 12.9789 5.03027 12.9789H12.7803H19.1553H19.2156C20.2131 12.9789 21.1151 12.3859 21.5106 11.4703L25.2791 2.74663C25.4563 2.33643 26.0415 2.34693 26.2039 2.76321L29.8161 12.0239C30.0407 12.5998 30.5955 12.9789 31.2136 12.9789H31.9053H38.2803H46.0303C48.5156 12.9789 50.5303 14.9936 50.5303 17.4789V36.314C50.5303 38.7993 48.5156 40.814 46.0303 40.814H5.03027C2.54499 40.814 0.530273 38.7993 0.530273 36.314V17.4789Z" fill="white" stroke="#BBBBBB"/>
<path d="M14.3825 31.314V21.1322H15.3122V25.8005H21.0892V21.1322H22.0189V31.314H21.0892V26.6358H15.3122V31.314H14.3825ZM27.6219 31.4731C26.9093 31.4731 26.2928 31.3074 25.7725 30.976C25.2521 30.6412 24.8494 30.1788 24.5644 29.5889C24.2826 28.9956 24.1418 28.3128 24.1418 27.5406C24.1418 26.7716 24.2826 26.0889 24.5644 25.4923C24.8494 24.8924 25.2422 24.4234 25.7426 24.0853C26.2464 23.7439 26.8281 23.5733 27.4877 23.5733C27.902 23.5733 28.3013 23.6495 28.6858 23.802C29.0703 23.9511 29.415 24.1814 29.7199 24.493C30.0281 24.8012 30.2718 25.1907 30.4507 25.6613C30.6297 26.1287 30.7192 26.6822 30.7192 27.3218V27.7593H24.7533V26.9788H29.8144C29.8144 26.4883 29.7149 26.0475 29.5161 25.6564C29.3205 25.2619 29.0471 24.9504 28.6958 24.7217C28.3477 24.493 27.945 24.3787 27.4877 24.3787C27.0038 24.3787 26.5779 24.5079 26.21 24.7664C25.8421 25.025 25.5537 25.3663 25.3449 25.7906C25.1394 26.2148 25.035 26.6788 25.0317 27.1826V27.65C25.0317 28.2565 25.1361 28.7868 25.3449 29.2409C25.557 29.6916 25.857 30.0413 26.2448 30.2899C26.6325 30.5385 27.0916 30.6627 27.6219 30.6627C27.9832 30.6627 28.2997 30.6064 28.5715 30.4937C28.8466 30.381 29.0769 30.2302 29.2625 30.0413C29.4514 29.8491 29.594 29.6386 29.6901 29.4099L30.5303 29.6833C30.4143 30.0048 30.2237 30.3015 29.9585 30.5733C29.6967 30.845 29.3686 31.0638 28.9742 31.2295C28.5831 31.3919 28.1323 31.4731 27.6219 31.4731ZM33.0534 34.1777C32.8777 34.1777 32.7136 34.1611 32.5612 34.1279C32.4087 34.0948 32.2877 34.0583 32.1982 34.0186L32.4369 33.238C32.7385 33.3308 33.007 33.364 33.2423 33.3375C33.4776 33.3143 33.6864 33.2082 33.8687 33.0193C34.051 32.8337 34.2134 32.5486 34.3559 32.1642L34.6343 31.3886L31.8254 23.6777H32.7849L35.0519 30.1457H35.1215L37.3886 23.6777H38.3481L35.1166 32.5221C34.9807 32.89 34.8133 33.1966 34.6144 33.4419C34.4156 33.6904 34.1852 33.8744 33.9234 33.9937C33.6649 34.1163 33.3749 34.1777 33.0534 34.1777Z" fill="black"/>
</svg>
