<svg width="29" height="28" viewBox="0 0 29 28" fill="none" xmlns="http://www.w3.org/2000/svg">
<path d="M23.2829 10.0735L22.9695 10.629L23.5837 10.8008C25.1154 11.2291 26.334 11.7593 27.1579 12.3398C27.9941 12.9289 28.332 13.5 28.332 14C28.332 14.5005 27.9941 15.0716 27.1579 15.6607C26.334 16.2411 25.1153 16.7714 23.5836 17.2002L22.9703 17.3719L23.2826 17.9269C24.0625 19.3128 24.5492 20.5488 24.7213 21.5416C24.896 22.549 24.7313 23.1922 24.3773 23.5468C24.0238 23.9009 23.3817 24.0657 22.3741 23.8906C21.3812 23.7181 20.1448 23.231 18.7588 22.4515L18.2039 22.1393L18.0322 22.7525C17.6034 24.2842 17.0732 25.5026 16.4927 26.3263C15.9037 27.1622 15.3326 27.5 14.832 27.5C14.3315 27.5 13.7603 27.1622 13.1713 26.3263C12.5909 25.5026 12.0607 24.2842 11.6318 22.7525L11.4602 22.1393L10.9052 22.4515C9.51932 23.2309 8.28297 23.7176 7.28999 23.8899C6.28229 24.0647 5.6394 23.9001 5.28536 23.5463C4.93159 23.1929 4.76683 22.5504 4.94188 21.5425C5.11435 20.5494 5.60152 19.3128 6.38145 17.9269L6.6938 17.3718L6.08047 17.2002C4.5483 16.7714 3.32968 16.2409 2.50585 15.6604C1.66979 15.0712 1.33203 14.5001 1.33203 14C1.33203 13.4999 1.66979 12.9288 2.50582 12.3398C3.32961 11.7593 4.54821 11.2291 6.08033 10.8008L6.6938 10.6293L6.38148 10.0741C5.60152 8.68765 5.11459 7.45153 4.94223 6.45882C4.76735 5.45155 4.93188 4.8087 5.28584 4.45411C5.63927 4.10005 6.28166 3.93527 7.28955 4.11031C8.28264 4.28279 9.51925 4.76996 10.9052 5.54947L11.4602 5.86157L11.6318 5.24846C12.0606 3.71676 12.5911 2.49811 13.1717 1.67414C13.7609 0.837891 14.3321 0.5 14.832 0.5C15.332 0.5 15.9031 0.837891 16.4924 1.67414C17.073 2.49811 17.6034 3.71676 18.0322 5.24846L18.2039 5.86157L18.7588 5.54947C20.1448 4.76998 21.3807 4.28327 22.3733 4.11103C23.3804 3.93625 24.0233 4.10077 24.3779 4.45474C24.7324 4.80858 24.898 5.45122 24.7238 6.4584C24.552 7.45104 24.065 8.68739 23.2829 10.0735Z" fill="#FFF59A" stroke="#646464"/>
</svg>
