<svg width="27" height="30" viewBox="0 0 27 30" fill="none" xmlns="http://www.w3.org/2000/svg">
<path d="M16.6228 6.3677L14.6327 1.85484C14.1258 0.713836 12.5095 0.716671 12.0083 1.85364L10.0179 6.36743C9.80628 6.84688 9.44749 7.2467 8.99362 7.50872C8.53976 7.77073 8.01428 7.8815 7.49326 7.82498L2.59011 7.29129C1.35324 7.15713 0.545284 8.55598 1.28048 9.56046L4.19403 13.5405C4.5035 13.9635 4.67043 14.4742 4.67043 14.9984C4.67043 15.5226 4.50363 16.0332 4.19415 16.4563L1.28048 20.4365C0.543721 21.443 1.3555 22.8428 2.5884 22.7048L2.59006 22.7047L7.4929 22.1719C8.01406 22.1151 8.53981 22.2256 8.99384 22.4878C9.44771 22.7498 9.80634 23.1496 10.0177 23.6292L12.0131 28.1461C12.5149 29.2846 14.1304 29.2846 14.6321 28.1461L16.6227 23.6294C16.8343 23.1497 17.1932 22.7499 17.6473 22.4879C18.1014 22.2258 18.6272 22.1152 19.1484 22.1719L24.0515 22.7047C25.2913 22.8396 26.0964 21.4422 25.3609 20.4363L22.4464 16.4563C22.1368 16.0332 21.9701 15.5226 21.9701 14.9984C21.9701 14.4742 22.1369 13.9634 22.4465 13.5404L25.3609 9.56066C26.0957 8.55565 25.2878 7.15706 24.0513 7.29129L19.1482 7.82497C18.6271 7.88157 18.1015 7.77085 17.6474 7.50887C17.1934 7.24688 16.8345 6.84721 16.6228 6.3677Z" fill="#FFF59A" stroke="#646464"/>
</svg>
